# xmcd
#
# Track frame offsets:
#	150
#	21615
#	33372
#	53335
#	67397
#	83377
#	91967
#	111885
#	118637
#	131465
#	146677
#	156570
#
# Disc length: 2368 seconds
#
# Revision: 2
# Processed by: cddbd v1.5.2PL0 Copyright (c) Steve Scherf et al.
# Submitted via: audiograbber 1.83.01
#
DISCID=a3093e0c
DTITLE=Grandpa Jones - Live
DYEAR=1969
DGENRE=Country
TTITLE0=Fix me a pallet
TTITLE1=Dooley
TTITLE2=The air, the sunshine, and the rain
TTITLE3=Castles in the air
TTITLE4=Old rattler's pup
TTITLE5=My Bonnie lies over the ocean
TTITLE6=Rocky top
TTITLE7=I don't love nobody
TTITLE8=John Henry
TTITLE9=The last old shovel
TTITLE10=Southern bound
TTITLE11=15 cent is all I got
EXTD=
EXTT0=
EXTT1=
EXTT2=
EXTT3=
EXTT4=
EXTT5=
EXTT6=
EXTT7=
EXTT8=
EXTT9=
EXTT10=
EXTT11=
PLAYORDER=
